<?xml version="1.0" encoding="UTF-8" standalone="no"?>
<!-- Created with Inkscape (http://www.inkscape.org/) -->

<svg
   version="1.1"
   id="svg2"
   xml:space="preserve"
   width="430.87787"
   height="93.043709"
   viewBox="0 0 430.87787 93.043709"
   sodipodi:docname="c187031a1ab808dc4471b96d6592c2bf.eps"
   xmlns:inkscape="http://www.inkscape.org/namespaces/inkscape"
   xmlns:sodipodi="http://sodipodi.sourceforge.net/DTD/sodipodi-0.dtd"
   xmlns="http://www.w3.org/2000/svg"
   xmlns:svg="http://www.w3.org/2000/svg"><defs
     id="defs6" /><sodipodi:namedview
     id="namedview4"
     pagecolor="#ffffff"
     bordercolor="#666666"
     borderopacity="1.0"
     inkscape:pageshadow="2"
     inkscape:pageopacity="0.0"
     inkscape:pagecheckerboard="0" /><g
     id="g8"
     inkscape:groupmode="layer"
     inkscape:label="ink_ext_XXXXXX"
     transform="matrix(1.3333333,0,0,-1.3333333,-0.07812506,93.115064)"><g
       id="g10"
       transform="scale(0.1)"><path
         d="m 1516.12,171.793 -276.67,-41.113 -15.56,12.062 66.02,131.301 26.35,-44.602 c 3.03,-5.113 8.52,-8.25 14.45,-8.25 h 162.35 c 5.4,0 10.47,2.614 13.63,7 3.16,4.387 4.01,10.008 2.27,15.164 l -37.54,111.481 c -2.3,6.812 -8.69,11.41 -15.89,11.41 h -89.22 l -26.24,77.93 h 129.41 l 29.16,-49.363 c 3.04,-5.11 8.54,-8.239 14.47,-8.239 h 238.73 c -0.07,0.672 -0.17,1.313 -0.22,1.985 v 0 c -0.06,0.449 -0.14,0.898 -0.18,1.343 -0.26,2.223 -0.52,4.426 -0.81,6.641 -0.03,0.25 -0.08,0.512 -0.11,0.773 -1.06,7.684 -2.33,15.293 -3.88,22.832 h -0.02 c -32.69,158.797 -173.23,278.215 -341.73,278.215 -168.21,0 -308.59,-119.011 -341.58,-277.429 l 111.12,7.543 119.73,98.64 276.67,41.141 15.55,-12.07 -66.25,-131.735 -26.61,45.039 c -3.03,5.125 -8.5,8.254 -14.45,8.254 H 1316.7 c -5.39,0 -10.46,-2.605 -13.63,-6.984 -3.14,-4.407 -4,-10.032 -2.28,-15.149 l 37.55,-111.504 c 2.31,-6.824 8.69,-11.418 15.9,-11.418 h 89.21 l 26.24,-77.91 h -129.4 l -29.16,49.34 c -3.03,5.117 -8.52,8.258 -14.47,8.258 h -238.72 c 0.08,-0.828 0.19,-1.633 0.28,-2.43 h -0.01 c 0.04,-0.414 0.12,-0.804 0.16,-1.191 0.26,-2.246 0.52,-4.485 0.83,-6.711 0.04,-0.297 0.09,-0.594 0.13,-0.895 1.03,-7.523 2.29,-14.988 3.8,-22.347 h 0.05 C 1095.84,119.984 1236.4,0.535156 1404.89,0.535156 c 168.07,0 308.36,118.835844 341.49,277.054844 l -110.52,-7.133 -119.74,-98.664"
         style="fill:#ed1345;fill-opacity:1;fill-rule:evenodd;stroke:none"
         id="path12" /><path
         d="m 2022.96,264.852 h -39.52 L 1958.88,129.621 H 1818.1 l 74.01,407.543 h 221.05 c 54.34,0 93.33,-11.426 116.97,-34.273 23.64,-22.848 31.35,-56.911 23.12,-102.192 -10.84,-59.691 -42.62,-99.828 -95.35,-120.41 l 68.97,-150.668 h -156.22 z m -22.36,94.476 h 51.25 c 18.11,0 31.48,2.777 40.1,8.332 8.63,5.559 14.21,15.336 16.75,29.336 2.47,13.582 0.42,23.258 -6.15,29.02 -6.57,5.761 -18.91,8.644 -37.03,8.644 h -51.25 l -13.67,-75.332"
         style="fill:#1e59ae;fill-opacity:1;fill-rule:nonzero;stroke:none"
         id="path14" /><path
         d="M 2502.82,207.426 H 2392.9 l -33.27,-77.805 h -143.25 l 206.14,407.543 h 172.9 l 58.75,-407.543 h -146.96 z m -4.74,89.535 -8.06,135.848 h -1.85 l -28.62,-69.161 -28.78,-66.687 h 67.31"
         style="fill:#1e59ae;fill-opacity:1;fill-rule:nonzero;stroke:none"
         id="path16" /><path
         d="m 2822.74,129.621 h -143.87 l 74.01,407.543 h 143.87 l -74.01,-407.543"
         style="fill:#1e59ae;fill-opacity:1;fill-rule:nonzero;stroke:none"
         id="path18" /><path
         d="M 3232.17,235.211 3213,129.621 h -328.51 l 74.01,407.543 h 143.88 l -54.84,-301.953 h 184.63"
         style="fill:#1e59ae;fill-opacity:1;fill-rule:nonzero;stroke:none"
         id="path20" /><path
         d="m 180.891,264.852 h -39.52 V 129.621 H 0.585938 V 537.164 H 221.645 c 54.335,0 95.398,-11.426 123.187,-34.273 27.785,-22.848 41.68,-56.911 41.68,-102.192 0,-59.691 -24.492,-99.828 -73.481,-120.41 L 409.359,129.621 H 253.133 Z m -39.52,94.476 h 51.25 c 18.113,0 30.977,2.777 38.594,8.332 7.617,5.559 11.422,15.336 11.422,29.336 0,13.582 -3.805,23.258 -11.422,29.02 -7.617,5.761 -20.481,8.644 -38.594,8.644 h -51.25 v -75.332"
         style="fill:#1e59ae;fill-opacity:1;fill-rule:nonzero;stroke:none"
         id="path22" /><path
         d="M 959.539,129.621 H 834.188 v 141.406 l 1.855,137.082 h -1.855 L 755.148,129.621 H 640.301 l -77.805,278.488 h -2.469 l 1.852,-137.082 V 129.621 H 435.914 v 407.543 h 201.297 l 46.93,-180.926 17.91,-75.949 h 1.23 l 17.91,75.949 46.926,180.926 H 959.539 V 129.621"
         style="fill:#1e59ae;fill-opacity:1;fill-rule:nonzero;stroke:none"
         id="path24" /></g></g></svg>
